<svg width="30" height="30" viewBox="0 0 30 30" fill="none" xmlns="http://www.w3.org/2000/svg">
<path d="M5.76937 26.0096C5.19396 26.0096 4.71354 25.8169 4.32812 25.4315C3.94271 25.0461 3.75 24.5657 3.75 23.9902V14.2787C3.75 13.7035 3.94271 13.2232 4.32812 12.8377C4.71354 12.4523 5.19396 12.2596 5.76937 12.2596H8.75V6.00961C8.75 5.43419 8.94271 4.95378 9.32812 4.56836C9.71354 4.18294 10.194 3.99023 10.7694 3.99023H24.2306C24.806 3.99023 25.2865 4.18294 25.6719 4.56836C26.0573 4.95378 26.25 5.43419 26.25 6.00961V15.7212C26.25 16.2964 26.0573 16.7767 25.6719 17.1621C25.2865 17.5475 24.806 17.7402 24.2306 17.7402H21.25V23.9902C21.25 24.5657 21.0573 25.0461 20.6719 25.4315C20.2865 25.8169 19.806 26.0096 19.2306 26.0096H5.76937ZM5.76937 24.7596H19.2306C19.4231 24.7596 19.5995 24.6795 19.7597 24.5193C19.9199 24.3589 20 24.1825 20 23.9902V16.0096H5V23.9902C5 24.1825 5.0801 24.3589 5.24031 24.5193C5.40052 24.6795 5.57687 24.7596 5.76937 24.7596ZM21.25 16.4902H24.2306C24.4231 16.4902 24.5995 16.4101 24.7597 16.2499C24.9199 16.0897 25 15.9135 25 15.7212V7.74023H10V12.2596H19.2306C19.806 12.2596 20.2865 12.4523 20.6719 12.8377C21.0573 13.2232 21.25 13.7035 21.25 14.2787V16.4902Z" fill="black"/>
</svg>
