<svg width="30" height="30" viewBox="0 0 30 30" fill="none" xmlns="http://www.w3.org/2000/svg">
<path d="M21.3484 15.6248H6.875C6.69708 15.6248 6.54844 15.5651 6.42906 15.4457C6.30969 15.3263 6.25 15.1777 6.25 14.9998C6.25 14.8218 6.30969 14.6732 6.42906 14.5538C6.54844 14.4345 6.69708 14.3748 6.875 14.3748H21.3484L14.5506 7.57664C14.4287 7.45497 14.365 7.31153 14.3594 7.14633C14.3537 6.98133 14.4199 6.82987 14.5578 6.69195C14.6955 6.55903 14.8429 6.49133 15 6.48883C15.1571 6.48653 15.3045 6.55424 15.4422 6.69195L23.0431 14.2929C23.1523 14.4021 23.2289 14.5135 23.2728 14.6273C23.317 14.741 23.3391 14.8652 23.3391 14.9998C23.3391 15.1343 23.317 15.2585 23.2728 15.3723C23.2289 15.486 23.1523 15.5975 23.0431 15.7066L15.4422 23.3076C15.3253 23.4245 15.1831 23.487 15.0156 23.4951C14.8481 23.503 14.6955 23.4405 14.5578 23.3076C14.4199 23.1697 14.3509 23.021 14.3509 22.8616C14.3509 22.7021 14.4199 22.5534 14.5578 22.4157L21.3484 15.6248Z" fill="black"/>
</svg>
