<svg width="30" height="30" viewBox="0 0 30 30" fill="none" xmlns="http://www.w3.org/2000/svg">
<path d="M6.25 13.75C5.915 13.75 5.62292 13.6254 5.37375 13.3762C5.12458 13.1271 5 12.835 5 12.5V6.25C5 5.915 5.12458 5.62292 5.37375 5.37375C5.62292 5.12458 5.915 5 6.25 5H12.5C12.835 5 13.1271 5.12458 13.3763 5.37375C13.6254 5.62292 13.75 5.915 13.75 6.25V12.5C13.75 12.835 13.6254 13.1271 13.3763 13.3762C13.1271 13.6254 12.835 13.75 12.5 13.75H6.25ZM6.25 25C5.915 25 5.62292 24.8754 5.37375 24.6262C5.12458 24.3771 5 24.085 5 23.75V17.5C5 17.165 5.12458 16.8729 5.37375 16.6237C5.62292 16.3746 5.915 16.25 6.25 16.25H12.5C12.835 16.25 13.1271 16.3746 13.3763 16.6237C13.6254 16.8729 13.75 17.165 13.75 17.5V23.75C13.75 24.085 13.6254 24.3771 13.3763 24.6262C13.1271 24.8754 12.835 25 12.5 25H6.25ZM17.5 13.75C17.165 13.75 16.8729 13.6254 16.6238 13.3762C16.3746 13.1271 16.25 12.835 16.25 12.5V6.25C16.25 5.915 16.3746 5.62292 16.6238 5.37375C16.8729 5.12458 17.165 5 17.5 5H23.75C24.085 5 24.3771 5.12458 24.6262 5.37375C24.8754 5.62292 25 5.915 25 6.25V12.5C25 12.835 24.8754 13.1271 24.6262 13.3762C24.3771 13.6254 24.085 13.75 23.75 13.75H17.5ZM17.5 25C17.165 25 16.8729 24.8754 16.6238 24.6262C16.3746 24.3771 16.25 24.085 16.25 23.75V17.5C16.25 17.165 16.3746 16.8729 16.6238 16.6237C16.8729 16.3746 17.165 16.25 17.5 16.25H23.75C24.085 16.25 24.3771 16.3746 24.6262 16.6237C24.8754 16.8729 25 17.165 25 17.5V23.75C25 24.085 24.8754 24.3771 24.6262 24.6262C24.3771 24.8754 24.085 25 23.75 25H17.5Z" fill="black"/>
</svg>
