<svg width="208" height="57" viewBox="0 0 208 57" fill="none" xmlns="http://www.w3.org/2000/svg">
<path d="M186.126 41.2719C184.758 41.2719 184.074 40.5639 184.074 39.1479V26.0799C184.074 24.6639 184.686 23.9559 185.91 23.9559C187.11 23.9559 187.746 24.2679 187.818 24.8919L187.962 26.0439C188.298 25.3239 188.862 24.7239 189.654 24.2439C190.446 23.7639 191.358 23.5239 192.39 23.5239C193.518 23.5239 194.502 23.7879 195.342 24.3159C196.182 24.8439 196.83 25.5999 197.286 26.5839C197.742 25.6959 198.402 24.9639 199.266 24.3879C200.154 23.8119 201.162 23.5239 202.29 23.5239C203.994 23.5239 205.362 24.1239 206.394 25.3239C207.45 26.4999 207.978 28.1679 207.978 30.3279V39.1479C207.978 40.5639 207.306 41.2719 205.962 41.2719C204.57 41.2719 203.874 40.5639 203.874 39.1479V31.2639C203.874 29.9919 203.646 28.9959 203.19 28.2759C202.734 27.5559 202.098 27.1959 201.282 27.1959C200.25 27.1959 199.446 27.5679 198.87 28.3119C198.318 29.0559 198.042 30.1119 198.042 31.4799V39.1479C198.042 40.5639 197.37 41.2719 196.026 41.2719C194.658 41.2719 193.974 40.5639 193.974 39.1479V31.2639C193.974 29.9919 193.734 28.9959 193.254 28.2759C192.774 27.5559 192.126 27.1959 191.31 27.1959C190.302 27.1959 189.522 27.5799 188.97 28.3479C188.418 29.0919 188.142 30.1359 188.142 31.4799V39.1479C188.142 40.5639 187.47 41.2719 186.126 41.2719Z"/>
<path d="M172.19 41.6679C170.606 41.6679 169.178 41.2959 167.906 40.5519C166.658 39.7839 165.662 38.7279 164.918 37.3839C164.198 36.0159 163.838 34.4199 163.838 32.5959C163.838 30.7719 164.198 29.1879 164.918 27.8439C165.662 26.4759 166.658 25.4199 167.906 24.6759C169.178 23.9079 170.606 23.5239 172.19 23.5239C173.822 23.5239 175.262 23.9079 176.51 24.6759C177.782 25.4199 178.778 26.4759 179.498 27.8439C180.218 29.1879 180.578 30.7719 180.578 32.5959C180.578 34.4199 180.218 36.0159 179.498 37.3839C178.778 38.7279 177.782 39.7839 176.51 40.5519C175.262 41.2959 173.822 41.6679 172.19 41.6679ZM172.19 37.9959C173.462 37.9959 174.494 37.5279 175.286 36.5919C176.102 35.6559 176.51 34.3239 176.51 32.5959C176.51 30.8679 176.102 29.5359 175.286 28.5999C174.494 27.6639 173.462 27.1959 172.19 27.1959C170.942 27.1959 169.922 27.6639 169.13 28.5999C168.338 29.5359 167.942 30.8679 167.942 32.5959C167.942 34.3239 168.338 35.6559 169.13 36.5919C169.922 37.5279 170.942 37.9959 172.19 37.9959Z"/>
<path d="M155.209 41.6679C153.625 41.6679 152.197 41.2959 150.925 40.5519C149.677 39.7839 148.681 38.7279 147.937 37.3839C147.217 36.0159 146.857 34.4199 146.857 32.5959C146.857 30.7719 147.217 29.1879 147.937 27.8439C148.681 26.4759 149.677 25.4199 150.925 24.6759C152.197 23.9079 153.625 23.5239 155.209 23.5239C157.273 23.5239 159.001 24.0999 160.393 25.2519C160.969 25.6839 161.221 26.1639 161.149 26.6919C161.101 27.2199 160.825 27.6759 160.321 28.0599C159.793 28.4199 159.337 28.5759 158.953 28.5279C158.593 28.4799 158.113 28.2639 157.513 27.8799C156.841 27.4239 156.073 27.1959 155.209 27.1959C153.961 27.1959 152.941 27.6639 152.149 28.5999C151.357 29.5359 150.961 30.8679 150.961 32.5959C150.961 34.3239 151.357 35.6559 152.149 36.5919C152.941 37.5279 153.961 37.9959 155.209 37.9959C156.097 37.9959 156.841 37.7799 157.441 37.3479C157.993 37.0119 158.473 36.7959 158.881 36.6999C159.313 36.5799 159.781 36.7119 160.285 37.0959C160.813 37.4799 161.113 37.9359 161.185 38.4639C161.257 38.9679 161.017 39.4359 160.465 39.8679C159.001 41.0679 157.249 41.6679 155.209 41.6679Z"/>
<path d="M134.918 41.5239C133.046 41.5959 131.498 41.1879 130.274 40.2999C129.074 39.4119 128.474 38.1279 128.474 36.4479C128.474 35.2239 128.846 34.1799 129.59 33.3159C130.334 32.4519 131.294 31.7799 132.47 31.2999C133.646 30.7959 134.858 30.5319 136.106 30.5079C136.73 30.4599 137.318 30.5079 137.87 30.6519C138.422 30.7959 138.914 30.9999 139.346 31.2639V29.7519C139.346 28.6239 139.106 27.8919 138.626 27.5559C138.146 27.2199 137.438 27.0519 136.502 27.0519C135.83 27.0519 135.122 27.1359 134.378 27.3039C133.658 27.4719 132.95 27.6999 132.254 27.9879C131.63 28.2519 131.09 28.3479 130.634 28.2759C130.202 28.2039 129.842 27.9159 129.554 27.4119C129.266 26.9079 129.194 26.4279 129.338 25.9719C129.506 25.4919 129.914 25.1199 130.562 24.8559C131.426 24.4479 132.362 24.1239 133.37 23.8839C134.402 23.6439 135.446 23.5239 136.502 23.5239C138.734 23.5239 140.414 23.9799 141.542 24.8919C142.67 25.7799 143.234 27.3999 143.234 29.7519V37.7079C143.234 37.9479 143.258 38.1399 143.306 38.2839C143.378 38.4279 143.438 38.5359 143.486 38.6079C143.702 38.9199 143.93 39.0999 144.17 39.1479C144.434 39.1959 144.662 39.2319 144.854 39.2559C145.046 39.2559 145.142 39.3639 145.142 39.5799C145.142 40.0119 145.022 40.3839 144.782 40.6959C144.566 41.0079 144.194 41.2239 143.666 41.3439C143.114 41.4639 142.574 41.5239 142.046 41.5239C141.302 41.5239 140.726 41.4039 140.318 41.1639C139.934 40.8999 139.658 40.4679 139.49 39.8679C138.89 40.3719 138.194 40.7679 137.402 41.0559C136.61 41.3199 135.782 41.4759 134.918 41.5239ZM134.846 37.9959C136.19 37.9479 137.294 37.6839 138.158 37.2039C139.046 36.7239 139.466 36.0399 139.418 35.1519C139.394 34.5759 139.094 34.1799 138.518 33.9639C137.966 33.7479 137.27 33.6639 136.43 33.7119C135.254 33.7359 134.282 34.0359 133.514 34.6119C132.746 35.1639 132.374 35.7879 132.398 36.4839C132.446 37.5639 133.262 38.0679 134.846 37.9959Z"/>
<path d="M112.157 41.2719C110.789 41.2719 110.105 40.5639 110.105 39.1479V26.0799C110.105 24.6639 110.717 23.9559 111.941 23.9559C113.165 23.9559 113.801 24.2679 113.849 24.8919L113.957 26.0079C114.437 25.3359 115.073 24.7599 115.865 24.2799C116.657 23.7759 117.593 23.5239 118.673 23.5239C120.473 23.5239 121.937 24.0999 123.065 25.2519C124.217 26.4039 124.793 28.0959 124.793 30.3279V39.1479C124.793 40.5639 124.121 41.2719 122.777 41.2719C121.409 41.2719 120.725 40.5639 120.725 39.1479V31.2999C120.725 29.9319 120.449 28.9119 119.897 28.2399C119.345 27.5439 118.601 27.1959 117.665 27.1959C116.633 27.1959 115.793 27.5559 115.145 28.2759C114.497 28.9719 114.173 30.0159 114.173 31.4079V39.1479C114.173 40.5639 113.501 41.2719 112.157 41.2719Z"/>
<path d="M103.205 41.272C101.861 41.272 101.189 40.564 101.189 39.148V26.08C101.189 24.664 101.861 23.956 103.205 23.956C104.549 23.956 105.221 24.664 105.221 26.08V39.148C105.221 40.564 104.549 41.272 103.205 41.272ZM103.169 21.112C102.473 21.112 101.873 20.86 101.369 20.356C100.865 19.852 100.613 19.252 100.613 18.556C100.613 17.86 100.865 17.26 101.369 16.756C101.873 16.252 102.473 16 103.169 16C103.865 16 104.465 16.252 104.969 16.756C105.473 17.26 105.725 17.86 105.725 18.556C105.725 19.252 105.473 19.852 104.969 20.356C104.465 20.86 103.865 21.112 103.169 21.112Z"/>
<path d="M81.052 41.2718C79.684 41.2718 79 40.5638 79 39.1478V18.1958C79 16.7798 79.684 16.0718 81.052 16.0718C82.444 16.0718 83.14 16.7798 83.14 18.1958V27.0158L91.24 17.6918C91.768 17.0438 92.248 16.6118 92.68 16.3958C93.112 16.1798 93.664 16.0718 94.336 16.0718C94.936 16.0718 95.38 16.2158 95.668 16.5038C95.956 16.7918 96.088 17.1398 96.064 17.5478C96.064 17.9558 95.92 18.3398 95.632 18.6998L87.568 27.8078L96.136 38.7158C96.424 39.0998 96.58 39.5078 96.604 39.9398C96.628 40.3718 96.484 40.7318 96.172 41.0198C95.884 41.3078 95.392 41.4518 94.696 41.4518C93.976 41.4518 93.388 41.3198 92.932 41.0558C92.5 40.7678 92.116 40.3958 91.78 39.9398L83.14 28.3838V39.1478C83.14 40.5638 82.444 41.2718 81.052 41.2718Z"/>
<path d="M28.1462 2.43734C27.2587 2.8738 26.3935 3.3786 25.5729 3.96427C26.598 3.97961 27.747 4.06189 28.978 4.2599C29.8265 3.69096 30.8419 3.11086 32.045 2.57121C30.5692 2.3955 29.2395 2.38156 28.1462 2.43734Z"/>
<path d="M30.4915 1.44746C31.5166 1.49905 32.6419 1.62177 33.8339 1.85604C34.1886 1.73053 34.5559 1.60782 34.937 1.49069C33.8214 1.30104 32.6822 1.17136 31.5222 1.10303C31.1786 1.2104 30.835 1.32475 30.4915 1.44746Z"/>
<path d="M42.8641 52.9561C41.6678 49.9412 40.7275 46.4356 39.4158 43.3524C46.4973 41.8924 52.1348 38.6405 54.8737 33.2049L57.8128 33.9816C57.8545 33.9928 57.8962 33.9984 57.9366 33.9984C58.1522 33.9984 58.3497 33.8533 58.4067 33.6344C58.4749 33.3736 58.3205 33.1073 58.0604 33.0376L55.2896 32.3055C55.5288 31.7463 55.7375 31.1662 55.9169 30.5638H58.8073C59.0758 30.5638 59.2942 30.3449 59.2942 30.0757C59.2942 29.8066 59.0758 29.5877 58.8073 29.5877H56.177C56.508 28.1793 56.6819 26.6593 56.6819 25.0236C56.6819 21.5639 55.9058 18.319 54.5051 15.4018C55.3688 9.65386 55.0656 0 55.0656 0C55.0656 0 45.1675 1.18808 39.8081 2.74291C38.9151 2.43055 37.9984 2.16002 37.0623 1.93133C36.6005 2.0387 36.1346 2.15723 35.6658 2.29249C36.556 2.5435 37.4713 2.86143 38.399 3.25746C38.6466 3.36344 38.7607 3.64931 38.655 3.89752C38.5757 4.08298 38.3963 4.19454 38.2071 4.19454C38.1431 4.19454 38.0791 4.18199 38.0165 4.15549C36.6005 3.5489 35.2082 3.14033 33.8909 2.8712C32.6933 3.31045 31.504 3.85569 30.3718 4.52921C31.6348 4.81229 32.9631 5.22226 34.3193 5.80235C34.5669 5.90833 34.681 6.1942 34.5753 6.44241C34.496 6.62787 34.3166 6.73943 34.1274 6.73943C34.0634 6.73943 33.9994 6.72688 33.9368 6.70039C32.2955 5.99758 30.6847 5.55972 29.1895 5.29756C28.8918 5.50812 28.6011 5.72705 28.3159 5.95853C25.9082 7.91357 25.1028 9.7431 25.0944 9.76123C25.0152 9.9453 24.8357 10.0569 24.6466 10.0569C24.5826 10.0569 24.5186 10.0443 24.456 10.0178C24.2098 9.91183 24.0943 9.62597 24.1987 9.37915C24.2334 9.29687 25.0778 7.3502 27.6455 5.24736C27.7039 5.19995 27.7651 5.15114 27.8263 5.10233C26.5063 4.95313 25.3059 4.9336 24.2919 4.97404C22.2249 6.78405 21.5183 8.38908 21.5113 8.40581C21.432 8.58988 21.2526 8.70144 21.0634 8.70144C20.9994 8.70144 20.9354 8.68889 20.8729 8.66239C20.6267 8.55641 20.5112 8.27055 20.6155 8.02373C20.6433 7.95819 21.197 6.68226 22.7521 5.08978C21.6546 5.2111 21.0022 5.37286 20.9827 5.37844C20.7226 5.44537 20.457 5.2878 20.3902 5.02703C20.3234 4.76627 20.4806 4.49993 20.7407 4.43299C20.8534 4.40371 22.0524 4.10529 23.9316 4.00071C23.9747 3.96445 24.0178 3.9282 24.0623 3.89194C24.5283 3.51125 25.0722 3.10965 25.6995 2.70525C25.2975 2.77498 25.0736 2.83076 25.0611 2.83355C24.7996 2.90048 24.5353 2.74291 24.4685 2.48214C24.4017 2.22138 24.5589 1.95503 24.819 1.8881C24.9303 1.86021 26.0973 1.56877 27.9348 1.46C28.2158 1.32474 28.5093 1.19226 28.8139 1.06258C25.5326 1.14764 22.3987 1.73053 19.5111 2.73733C14.1461 1.1839 4.28696 0.00139446 4.28696 0.00139446C4.28696 0.00139446 3.98651 9.55485 4.83361 15.3126C3.40509 18.2521 2.61224 21.5277 2.61224 25.0236C2.61224 26.6593 2.78611 28.1793 3.11716 29.5877H0.486839C0.218382 29.5877 0 29.8066 0 30.0757C0 30.3449 0.218382 30.5638 0.486839 30.5638H3.37727C3.5567 31.1662 3.76674 31.7463 4.0046 32.3055L1.23379 33.0376C0.973677 33.1059 0.817889 33.3736 0.887437 33.6344C0.944467 33.8533 1.14198 33.9984 1.35758 33.9984C1.39792 33.9984 1.43965 33.9928 1.48138 33.9816L4.42049 33.2049C7.15931 38.6405 12.7969 41.891 19.8783 43.3524C18.5666 46.4356 17.6263 49.9398 16.4301 52.9561C16.2618 53.3828 16.113 53.7969 15.9794 54.2027C20.1746 56.0016 24.794 57 29.6457 57C34.4974 57 39.1168 56.003 43.3119 54.2027C43.1784 53.7969 43.031 53.3814 42.8613 52.9561H42.8641ZM16.4343 28.9128C14.1434 28.9128 12.285 27.0512 12.285 24.7531C12.285 22.455 14.142 20.5934 16.4343 20.5934C18.7266 20.5934 20.5835 22.455 20.5835 24.7531C20.5835 27.0512 18.7266 28.9128 16.4343 28.9128ZM29.6485 27.7512C30.4942 27.7512 31.1785 28.0635 31.1785 28.4484C31.1785 28.8333 30.4942 29.4245 29.6485 29.4245C28.8028 29.4245 28.1184 28.8333 28.1184 28.4484C28.1184 28.0635 28.8028 27.7512 29.6485 27.7512ZM32.9492 34.3539C32.8741 34.6119 32.6071 34.7625 32.3483 34.6886C32.2649 34.6649 30.6027 34.1713 29.6485 32.6848C28.6943 34.1727 27.0335 34.6649 26.9486 34.6886C26.9041 34.7012 26.8582 34.7081 26.8151 34.7081C26.6036 34.7081 26.4089 34.5687 26.3477 34.3539C26.274 34.0946 26.4228 33.8241 26.6815 33.7501C26.6996 33.7446 28.6414 33.1575 29.1825 31.3935C29.2451 31.1885 29.4343 31.0491 29.6485 31.0491C29.8627 31.0491 30.0505 31.1885 30.1144 31.3935C30.6555 33.1589 32.5973 33.7446 32.6168 33.7501C32.8741 33.8254 33.023 34.096 32.9492 34.3539ZM42.8627 20.5934C45.1536 20.5934 47.0119 22.455 47.0119 24.7531C47.0119 27.0512 45.155 28.9128 42.8627 28.9128C40.5703 28.9128 38.7134 27.0512 38.7134 24.7531C38.7134 22.455 40.5703 20.5934 42.8627 20.5934Z"/>
</svg>
