<svg width="130" height="163" viewBox="0 0 130 163" fill="none" xmlns="http://www.w3.org/2000/svg">
<path d="M107.814 162.003C106.446 162.003 105.762 161.295 105.762 159.879V146.811C105.762 145.395 106.374 144.687 107.598 144.687C108.798 144.687 109.434 144.999 109.506 145.623L109.65 146.775C109.986 146.055 110.55 145.455 111.342 144.975C112.134 144.495 113.046 144.255 114.078 144.255C115.206 144.255 116.19 144.519 117.03 145.047C117.87 145.575 118.518 146.331 118.974 147.315C119.43 146.427 120.09 145.695 120.954 145.119C121.842 144.543 122.85 144.255 123.978 144.255C125.682 144.255 127.05 144.855 128.082 146.055C129.138 147.231 129.666 148.899 129.666 151.059V159.879C129.666 161.295 128.994 162.003 127.65 162.003C126.258 162.003 125.562 161.295 125.562 159.879V151.995C125.562 150.723 125.334 149.727 124.878 149.007C124.422 148.287 123.786 147.927 122.97 147.927C121.938 147.927 121.134 148.299 120.558 149.043C120.006 149.787 119.73 150.843 119.73 152.211V159.879C119.73 161.295 119.058 162.003 117.714 162.003C116.346 162.003 115.662 161.295 115.662 159.879V151.995C115.662 150.723 115.422 149.727 114.942 149.007C114.462 148.287 113.814 147.927 112.998 147.927C111.99 147.927 111.21 148.311 110.658 149.079C110.106 149.823 109.83 150.867 109.83 152.211V159.879C109.83 161.295 109.158 162.003 107.814 162.003Z"/>
<path d="M93.8785 162.399C92.2945 162.399 90.8665 162.027 89.5945 161.283C88.3465 160.515 87.3505 159.459 86.6065 158.115C85.8865 156.747 85.5265 155.151 85.5265 153.327C85.5265 151.503 85.8865 149.919 86.6065 148.575C87.3505 147.207 88.3465 146.151 89.5945 145.407C90.8665 144.639 92.2945 144.255 93.8785 144.255C95.5105 144.255 96.9505 144.639 98.1985 145.407C99.4705 146.151 100.466 147.207 101.186 148.575C101.906 149.919 102.266 151.503 102.266 153.327C102.266 155.151 101.906 156.747 101.186 158.115C100.466 159.459 99.4705 160.515 98.1985 161.283C96.9505 162.027 95.5105 162.399 93.8785 162.399ZM93.8785 158.727C95.1505 158.727 96.1825 158.259 96.9745 157.323C97.7905 156.387 98.1985 155.055 98.1985 153.327C98.1985 151.599 97.7905 150.267 96.9745 149.331C96.1825 148.395 95.1505 147.927 93.8785 147.927C92.6305 147.927 91.6105 148.395 90.8185 149.331C90.0265 150.267 89.6305 151.599 89.6305 153.327C89.6305 155.055 90.0265 156.387 90.8185 157.323C91.6105 158.259 92.6305 158.727 93.8785 158.727Z"/>
<path d="M76.898 162.399C75.314 162.399 73.886 162.027 72.614 161.283C71.366 160.515 70.37 159.459 69.626 158.115C68.906 156.747 68.546 155.151 68.546 153.327C68.546 151.503 68.906 149.919 69.626 148.575C70.37 147.207 71.366 146.151 72.614 145.407C73.886 144.639 75.314 144.255 76.898 144.255C78.962 144.255 80.69 144.831 82.082 145.983C82.658 146.415 82.91 146.895 82.838 147.423C82.79 147.951 82.514 148.407 82.01 148.791C81.482 149.151 81.026 149.307 80.642 149.259C80.282 149.211 79.802 148.995 79.202 148.611C78.53 148.155 77.762 147.927 76.898 147.927C75.65 147.927 74.63 148.395 73.838 149.331C73.046 150.267 72.65 151.599 72.65 153.327C72.65 155.055 73.046 156.387 73.838 157.323C74.63 158.259 75.65 158.727 76.898 158.727C77.786 158.727 78.53 158.511 79.13 158.079C79.682 157.743 80.162 157.527 80.57 157.431C81.002 157.311 81.47 157.443 81.974 157.827C82.502 158.211 82.802 158.667 82.874 159.195C82.946 159.699 82.706 160.167 82.154 160.599C80.69 161.799 78.938 162.399 76.898 162.399Z"/>
<path d="M56.6067 162.255C54.7347 162.327 53.1867 161.919 51.9627 161.031C50.7627 160.143 50.1627 158.859 50.1627 157.179C50.1627 155.955 50.5347 154.911 51.2787 154.047C52.0227 153.183 52.9827 152.511 54.1587 152.031C55.3347 151.527 56.5467 151.263 57.7947 151.239C58.4187 151.191 59.0067 151.239 59.5587 151.383C60.1107 151.527 60.6027 151.731 61.0347 151.995V150.483C61.0347 149.355 60.7947 148.623 60.3147 148.287C59.8347 147.951 59.1267 147.783 58.1907 147.783C57.5187 147.783 56.8107 147.867 56.0667 148.035C55.3467 148.203 54.6387 148.431 53.9427 148.719C53.3187 148.983 52.7787 149.079 52.3227 149.007C51.8907 148.935 51.5307 148.647 51.2427 148.143C50.9547 147.639 50.8827 147.159 51.0267 146.703C51.1947 146.223 51.6027 145.851 52.2507 145.587C53.1147 145.179 54.0507 144.855 55.0587 144.615C56.0907 144.375 57.1347 144.255 58.1907 144.255C60.4227 144.255 62.1027 144.711 63.2307 145.623C64.3587 146.511 64.9227 148.131 64.9227 150.483V158.439C64.9227 158.679 64.9467 158.871 64.9947 159.015C65.0667 159.159 65.1267 159.267 65.1747 159.339C65.3907 159.651 65.6187 159.831 65.8587 159.879C66.1227 159.927 66.3507 159.963 66.5427 159.987C66.7347 159.987 66.8307 160.095 66.8307 160.311C66.8307 160.743 66.7107 161.115 66.4707 161.427C66.2547 161.739 65.8827 161.955 65.3547 162.075C64.8027 162.195 64.2627 162.255 63.7347 162.255C62.9907 162.255 62.4147 162.135 62.0067 161.895C61.6227 161.631 61.3467 161.199 61.1787 160.599C60.5787 161.103 59.8827 161.499 59.0907 161.787C58.2987 162.051 57.4707 162.207 56.6067 162.255ZM56.5347 158.727C57.8787 158.679 58.9827 158.415 59.8467 157.935C60.7347 157.455 61.1547 156.771 61.1067 155.883C61.0827 155.307 60.7827 154.911 60.2067 154.695C59.6547 154.479 58.9587 154.395 58.1187 154.443C56.9427 154.467 55.9707 154.767 55.2027 155.343C54.4347 155.895 54.0627 156.519 54.0867 157.215C54.1347 158.295 54.9507 158.799 56.5347 158.727Z"/>
<path d="M33.8457 162.003C32.4777 162.003 31.7937 161.295 31.7937 159.879V146.811C31.7937 145.395 32.4057 144.687 33.6297 144.687C34.8537 144.687 35.4897 144.999 35.5377 145.623L35.6457 146.739C36.1257 146.067 36.7617 145.491 37.5537 145.011C38.3457 144.507 39.2817 144.255 40.3617 144.255C42.1617 144.255 43.6257 144.831 44.7537 145.983C45.9057 147.135 46.4817 148.827 46.4817 151.059V159.879C46.4817 161.295 45.8097 162.003 44.4657 162.003C43.0977 162.003 42.4137 161.295 42.4137 159.879V152.031C42.4137 150.663 42.1377 149.643 41.5857 148.971C41.0337 148.275 40.2897 147.927 39.3537 147.927C38.3217 147.927 37.4817 148.287 36.8337 149.007C36.1857 149.703 35.8617 150.747 35.8617 152.139V159.879C35.8617 161.295 35.1897 162.003 33.8457 162.003Z"/>
<path d="M24.8935 162.003C23.5495 162.003 22.8775 161.295 22.8775 159.879V146.811C22.8775 145.395 23.5495 144.687 24.8935 144.687C26.2375 144.687 26.9095 145.395 26.9095 146.811V159.879C26.9095 161.295 26.2375 162.003 24.8935 162.003ZM24.8575 141.843C24.1615 141.843 23.5615 141.591 23.0575 141.087C22.5535 140.583 22.3015 139.983 22.3015 139.287C22.3015 138.591 22.5535 137.991 23.0575 137.487C23.5615 136.983 24.1615 136.731 24.8575 136.731C25.5535 136.731 26.1535 136.983 26.6575 137.487C27.1615 137.991 27.4135 138.591 27.4135 139.287C27.4135 139.983 27.1615 140.583 26.6575 141.087C26.1535 141.591 25.5535 141.843 24.8575 141.843Z"/>
<path d="M2.74081 162.003C1.37281 162.003 0.688812 161.295 0.688812 159.879V138.927C0.688812 137.511 1.37281 136.803 2.74081 136.803C4.13281 136.803 4.82881 137.511 4.82881 138.927V147.747L12.9288 138.423C13.4568 137.775 13.9368 137.343 14.3688 137.127C14.8008 136.911 15.3528 136.803 16.0248 136.803C16.6248 136.803 17.0688 136.947 17.3568 137.235C17.6448 137.523 17.7768 137.871 17.7528 138.279C17.7528 138.687 17.6088 139.071 17.3208 139.431L9.25681 148.539L17.8248 159.447C18.1128 159.831 18.2688 160.239 18.2928 160.671C18.3168 161.103 18.1728 161.463 17.8608 161.751C17.5728 162.039 17.0808 162.183 16.3848 162.183C15.6648 162.183 15.0768 162.051 14.6208 161.787C14.1888 161.499 13.8048 161.127 13.4688 160.671L4.82881 149.115V159.879C4.82881 161.295 4.13281 162.003 2.74081 162.003Z"/>
<path d="M61.2318 5.30278C59.3012 6.25231 57.419 7.35048 55.6337 8.62461C57.8639 8.65798 60.3634 8.83697 63.0414 9.26774C64.8873 8.03002 67.0963 6.76803 69.7138 5.59401C66.5032 5.21177 63.6103 5.18143 61.2318 5.30278Z"/>
<path d="M66.3337 3.14889C68.5639 3.26114 71.012 3.5281 73.6053 4.03775C74.3769 3.76472 75.1758 3.49776 76.005 3.24294C73.5781 2.83036 71.0997 2.54823 68.576 2.39959C67.8286 2.63318 67.0812 2.88193 66.3337 3.14889Z"/>
<path d="M93.2504 115.205C90.648 108.647 88.6024 101.02 85.7488 94.3128C101.154 91.1366 113.419 84.0621 119.377 72.237L125.771 73.9267C125.862 73.951 125.953 73.9632 126.041 73.9632C126.51 73.9632 126.939 73.6477 127.063 73.1714C127.212 72.6041 126.876 72.0247 126.31 71.873L120.282 70.2803C120.802 69.0638 121.256 67.8018 121.647 66.4913H127.935C128.519 66.4913 128.994 66.015 128.994 65.4295C128.994 64.844 128.519 64.3678 127.935 64.3678H122.213C122.933 61.3038 123.311 57.9971 123.311 54.4387C123.311 46.9122 121.623 39.8529 118.575 33.5065C120.454 21.0019 119.795 0 119.795 0C119.795 0 98.2615 2.58466 86.6022 5.96717C84.6595 5.28763 82.6653 4.69911 80.6288 4.20159C79.6241 4.43518 78.6104 4.69304 77.5906 4.9873C79.5273 5.53336 81.5184 6.22503 83.5368 7.08658C84.0754 7.31714 84.3236 7.93903 84.0936 8.47902C83.9211 8.8825 83.5307 9.12519 83.1192 9.12519C82.98 9.12519 82.8408 9.09788 82.7046 9.04025C79.6241 7.72061 76.5951 6.83176 73.7294 6.24626C71.124 7.20186 68.5367 8.38801 66.0735 9.85326C68.8212 10.4691 71.711 11.361 74.6614 12.623C75.2001 12.8535 75.4482 13.4754 75.2182 14.0154C75.0457 14.4189 74.6554 14.6616 74.2438 14.6616C74.1046 14.6616 73.9654 14.6343 73.8293 14.5766C70.2585 13.0477 66.7544 12.0951 63.5014 11.5248C62.8538 11.9829 62.2214 12.4592 61.6011 12.9627C56.363 17.2159 54.6109 21.196 54.5927 21.2355C54.4203 21.6359 54.0299 21.8786 53.6184 21.8786C53.4792 21.8786 53.34 21.8513 53.2038 21.7937C52.6682 21.5631 52.417 20.9412 52.644 20.4043C52.7196 20.2253 54.5564 15.9903 60.1425 11.4156C60.2696 11.3124 60.4027 11.2063 60.5359 11.1001C57.6642 10.7755 55.0527 10.733 52.8467 10.821C48.35 14.7587 46.8128 18.2504 46.7977 18.2868C46.6252 18.6872 46.2348 18.9299 45.8233 18.9299C45.6841 18.9299 45.5449 18.9026 45.4087 18.845C44.8731 18.6144 44.622 17.9925 44.8489 17.4556C44.9094 17.313 46.1138 14.5372 49.4969 11.0728C47.1094 11.3367 45.6901 11.6886 45.6478 11.7007C45.0819 11.8464 44.5039 11.5036 44.3587 10.9363C44.2134 10.369 44.5554 9.78955 45.1213 9.64394C45.3664 9.58023 47.9748 8.93103 52.063 8.70351C52.1568 8.62464 52.2506 8.54576 52.3474 8.46689C53.3612 7.6387 54.5443 6.76502 55.9091 5.88526C55.0345 6.03694 54.5474 6.15829 54.5201 6.16435C53.9512 6.30997 53.3763 5.96717 53.231 5.39988C53.0858 4.83259 53.4277 4.25316 53.9936 4.10755C54.2357 4.04687 56.7745 3.41284 60.7719 3.17622C61.3832 2.88196 62.0217 2.59376 62.6844 2.31163C55.5459 2.49669 48.7283 3.76475 42.4462 5.95503C30.7748 2.57556 9.32625 0.00303364 9.32625 0.00303364C9.32625 0.00303364 8.67262 20.7865 10.5155 33.3124C7.40774 39.7073 5.6829 46.8333 5.6829 54.4387C5.6829 57.9971 6.06115 61.3038 6.78135 64.3678H1.05911C0.475088 64.3678 0 64.844 0 65.4295C0 66.015 0.475088 66.4913 1.05911 66.4913H7.34722C7.73758 67.8018 8.19451 69.0638 8.71196 70.2803L2.6841 71.873C2.11823 72.0216 1.77931 72.6041 1.93061 73.1714C2.05468 73.6477 2.48438 73.9632 2.95341 73.9632C3.04117 73.9632 3.13195 73.951 3.22273 73.9267L9.61675 72.237C15.575 84.0621 27.8395 91.1336 43.2451 94.3128C40.3916 101.02 38.346 108.644 35.7436 115.205C35.3774 116.134 35.0536 117.035 34.7631 117.918C43.8897 121.831 53.9391 124.003 64.4939 124.003C75.0488 124.003 85.0982 121.834 94.2248 117.918C93.9343 117.035 93.6135 116.131 93.2443 115.205H93.2504ZM35.7526 62.8995C30.7688 62.8995 26.726 58.8496 26.726 53.8501C26.726 48.8507 30.7657 44.8008 35.7526 44.8008C40.7395 44.8008 44.7793 48.8507 44.7793 53.8501C44.7793 58.8496 40.7395 62.8995 35.7526 62.8995ZM64.5 60.3725C66.3398 60.3725 67.8286 61.052 67.8286 61.8893C67.8286 62.7266 66.3398 64.0128 64.5 64.0128C62.6602 64.0128 61.1714 62.7266 61.1714 61.8893C61.1714 61.052 62.6602 60.3725 64.5 60.3725ZM71.6808 74.7367C71.5174 75.298 70.9364 75.6256 70.3735 75.4648C70.192 75.4132 66.5759 74.3393 64.5 71.1055C62.4241 74.3424 58.811 75.4132 58.6265 75.4648C58.5296 75.4921 58.4298 75.5073 58.336 75.5073C57.876 75.5073 57.4524 75.2039 57.3192 74.7367C57.1588 74.1725 57.4826 73.584 58.0455 73.4232C58.0848 73.411 62.3091 72.1339 63.4863 68.2963C63.6224 67.8504 64.034 67.547 64.5 67.547C64.966 67.547 65.3745 67.8504 65.5137 68.2963C66.6908 72.1369 70.9152 73.411 70.9576 73.4232C71.5174 73.587 71.8412 74.1755 71.6808 74.7367ZM93.2474 44.8008C98.2312 44.8008 102.274 48.8507 102.274 53.8501C102.274 58.8496 98.2343 62.8995 93.2474 62.8995C88.2604 62.8995 84.2207 58.8496 84.2207 53.8501C84.2207 48.8507 88.2604 44.8008 93.2474 44.8008Z"/>
</svg>
