<svg width="100" height="100" viewBox="0 0 100 100" fill="none" xmlns="http://www.w3.org/2000/svg">
<style>
@media (prefers-color-scheme: dark) {
  .a {
    fill: white;
  }
}</style>
<g clip-path="url(#clip0_98_266)">
<path class="a" d="M50 0C22.386 0 0 22.359 0 49.9397C0 70.6686 12.646 88.4471 30.65 96C30.758 95.6984 30.874 95.3927 30.998 95.0851C32.718 90.7663 34.07 85.7444 35.956 81.3277C25.774 79.2363 17.668 74.5779 13.73 66.7913L9.504 67.904C9.444 67.9199 9.384 67.9279 9.326 67.9279C9.016 67.9279 8.732 67.7202 8.65 67.4066C8.552 67.033 8.774 66.6515 9.148 66.5516L13.132 65.5029C12.788 64.7018 12.488 63.8708 12.23 63.0079H8.074C7.688 63.0079 7.374 62.6942 7.374 62.3087C7.374 61.9232 7.688 61.6096 8.074 61.6096H11.856C11.38 59.592 11.13 57.4146 11.13 55.0715C11.13 50.0635 12.27 45.3712 14.324 41.1603C13.106 32.9122 13.538 19.2268 13.538 19.2268C13.538 19.2268 27.714 20.9207 35.43 23.142C39.58 21.6998 44.088 20.8628 48.806 20.7429C48.37 20.9287 47.946 21.1205 47.542 21.3122C44.902 21.4661 43.222 21.8836 43.062 21.9255C42.688 22.0214 42.462 22.4029 42.558 22.7765C42.654 23.15 43.034 23.3758 43.41 23.2799C43.426 23.2759 43.75 23.196 44.328 23.0961C43.426 23.6734 42.642 24.2487 41.974 24.796C41.91 24.848 41.848 24.8999 41.786 24.9519C39.082 25.1017 37.358 25.5292 37.198 25.5711C36.824 25.667 36.598 26.0485 36.694 26.4221C36.79 26.7956 37.17 27.0213 37.546 26.9255C37.574 26.9175 38.512 26.6878 40.09 26.512C37.854 28.7932 37.058 30.621 37.018 30.7149C36.868 31.0705 37.032 31.478 37.388 31.6298C37.478 31.6677 37.57 31.6857 37.662 31.6857C37.934 31.6857 38.192 31.5279 38.306 31.2622C38.316 31.2383 39.332 28.939 42.304 26.3462C43.76 26.2882 45.486 26.3162 47.386 26.5299C47.298 26.5999 47.21 26.6698 47.126 26.7377C43.434 29.7501 42.22 32.5407 42.17 32.6565C42.02 33.0121 42.184 33.4196 42.54 33.5714C42.63 33.6094 42.722 33.6274 42.814 33.6274C43.086 33.6274 43.344 33.4696 43.458 33.2039C43.47 33.1779 44.626 30.5571 48.09 27.7565C48.5 27.4249 48.92 27.1112 49.346 26.8096C51.498 27.1852 53.812 27.8144 56.172 28.8192C56.262 28.8571 56.354 28.8751 56.446 28.8751C56.718 28.8751 56.976 28.7153 57.09 28.4496C57.242 28.0941 57.076 27.6845 56.722 27.5327C54.772 26.7017 52.862 26.1144 51.046 25.7089C52.676 24.7441 54.386 23.963 56.106 23.3338C57.998 23.7193 60 24.3066 62.038 25.1736C62.128 25.2115 62.22 25.2295 62.312 25.2295C62.584 25.2295 62.842 25.0697 62.956 24.804C63.108 24.4485 62.942 24.039 62.588 23.8871C61.254 23.3178 59.938 22.8644 58.658 22.5048C59.334 22.311 60.004 22.1412 60.666 21.9874C62.014 22.315 63.332 22.7026 64.614 23.15C72.32 20.9227 86.552 19.2208 86.552 19.2208C86.552 19.2208 86.988 33.0501 85.746 41.2841C87.76 45.4631 88.876 50.1095 88.876 55.0675C88.876 57.4106 88.626 59.588 88.15 61.6056H91.932C92.318 61.6056 92.632 61.9192 92.632 62.3047C92.632 62.6903 92.318 63.0039 91.932 63.0039H87.776C87.518 63.8668 87.216 64.6978 86.874 65.4989L90.858 66.5476C91.232 66.6455 91.456 67.029 91.356 67.4026C91.274 67.7162 90.99 67.9239 90.68 67.9239C90.622 67.9239 90.562 67.9159 90.502 67.9L86.276 66.7873C82.338 74.5739 74.232 79.2303 64.05 81.3237C65.936 85.7404 67.288 90.7603 69.008 95.0811C69.132 95.3907 69.246 95.6944 69.356 95.996C87.362 88.4411 100.006 70.6626 100.006 49.9357C100 22.359 77.614 0 50 0ZM49.036 25.3274C47.264 25.0437 45.614 24.9239 44.14 24.9039C45.322 24.0669 46.566 23.3418 47.84 22.7166C49.412 22.6386 51.324 22.6566 53.446 22.9083C51.716 23.6814 50.256 24.5124 49.036 25.3274ZM56.018 21.8816C54.304 21.548 52.686 21.3702 51.212 21.2963C51.706 21.1205 52.202 20.9567 52.694 20.8029C54.362 20.9007 56 21.0865 57.604 21.3582C57.056 21.526 56.528 21.6998 56.018 21.8816Z" fill="black"/>
<path class="a" d="M50 61.3756C51.216 61.3756 52.2 60.5286 52.2 59.9773C52.2 59.426 51.216 58.9785 50 58.9785C48.784 58.9785 47.8 59.426 47.8 59.9773C47.8 60.5286 48.784 61.3756 50 61.3756Z" fill="black"/>
<path class="a" d="M31.0001 60.6427C34.295 60.6427 36.9661 57.9749 36.9661 54.6839C36.9661 51.3929 34.295 48.7251 31.0001 48.7251C27.7051 48.7251 25.0341 51.3929 25.0341 54.6839C25.0341 57.9749 27.7051 60.6427 31.0001 60.6427Z" fill="black"/>
<path class="a" d="M45.254 68.4374C45.342 68.745 45.622 68.9448 45.926 68.9448C45.99 68.9448 46.054 68.9368 46.118 68.9168C46.238 68.8829 48.628 68.1757 50 66.0463C51.372 68.1777 53.76 68.8829 53.882 68.9168C54.252 69.0227 54.6381 68.809 54.7461 68.4374C54.8541 68.0659 54.64 67.6803 54.268 67.5724C54.24 67.5645 51.448 66.7235 50.67 64.1965C50.58 63.9029 50.308 63.7031 50 63.7031C49.692 63.7031 49.422 63.9029 49.33 64.1965C48.552 66.7255 45.76 67.5645 45.734 67.5724C45.362 67.6783 45.148 68.0659 45.254 68.4374Z" fill="black"/>
<path class="a" d="M69.0001 60.6427C72.295 60.6427 74.9661 57.9749 74.9661 54.6839C74.9661 51.3929 72.295 48.7251 69.0001 48.7251C65.7051 48.7251 63.0341 51.3929 63.0341 54.6839C63.0341 57.9749 65.7051 60.6427 69.0001 60.6427Z" fill="black"/>
</g>
<defs>
<clipPath id="clip0_98_266">
<rect width="100" height="100" fill="white"/>
</clipPath>
</defs>
</svg>
